<mxfile host="app.diagrams.net" agent="Mozilla/5.0 (Macintosh; Intel Mac OS X 10_15_7) AppleWebKit/537.36 (KHTML, like Gecko) Chrome/138.0.0.0 Safari/537.36" version="28.2.3">
  <diagram name="第 1 页" id="WM99677n8quHtFkY7h64">
    <mxGraphModel grid="0" page="1" gridSize="10" guides="1" tooltips="1" connect="1" arrows="1" fold="1" pageScale="1" pageWidth="827" pageHeight="1169" math="0" shadow="0">
      <root>
        <mxCell id="0" />
        <mxCell id="1" parent="0" />
        <mxCell id="vXbnNPldB_mnkSm1rtZu-9" value="支撑层_互联互通与赋能管理" style="whiteSpace=wrap;strokeWidth=2;fillColor=#ffe6cc;strokeColor=#d79b00;fontSize=15;rounded=0;" vertex="1" parent="1">
          <mxGeometry x="20" y="20" width="348" height="706" as="geometry" />
        </mxCell>
        <mxCell id="vXbnNPldB_mnkSm1rtZu-10" value="                                                                   底层_物理世界交互与执行" style="whiteSpace=wrap;strokeWidth=2;fillColor=#d5e8d4;strokeColor=#82b366;fontSize=15;rounded=0;" vertex="1" parent="1">
          <mxGeometry x="488" y="445" width="469" height="128" as="geometry" />
        </mxCell>
        <mxCell id="vXbnNPldB_mnkSm1rtZu-11" value="                                                             中间层_智能体协同网络" style="whiteSpace=wrap;strokeWidth=2;fillColor=#d5e8d4;strokeColor=#82b366;fontSize=15;rounded=0;" vertex="1" parent="1">
          <mxGeometry x="395" y="245" width="436" height="128" as="geometry" />
        </mxCell>
        <mxCell id="vXbnNPldB_mnkSm1rtZu-12" value="                                                                    顶层_智能决策与调度中枢" style="whiteSpace=wrap;strokeWidth=2;fillColor=#d5e8d4;strokeColor=#82b366;fontSize=15;rounded=0;" vertex="1" parent="1">
          <mxGeometry x="479" y="20" width="476" height="152" as="geometry" />
        </mxCell>
        <mxCell id="vXbnNPldB_mnkSm1rtZu-13" value="工厂大脑&#xa;(Factory Brain)" style="whiteSpace=wrap;strokeWidth=2;fontSize=17;rounded=0;" vertex="1" parent="1">
          <mxGeometry x="538" y="59" width="167" height="78" as="geometry" />
        </mxCell>
        <mxCell id="vXbnNPldB_mnkSm1rtZu-14" value="智能体群&#xa;(Intelligent Agents)" style="whiteSpace=wrap;strokeWidth=2;fontSize=17;rounded=0;" vertex="1" parent="1">
          <mxGeometry x="426" y="270" width="198" height="78" as="geometry" />
        </mxCell>
        <mxCell id="vXbnNPldB_mnkSm1rtZu-15" value="智能终端/具身智能终端&#xa;(Intelligent Terminals)" style="whiteSpace=wrap;strokeWidth=2;fontSize=17;rounded=0;" vertex="1" parent="1">
          <mxGeometry x="521" y="470" width="226" height="78" as="geometry" />
        </mxCell>
        <mxCell id="vXbnNPldB_mnkSm1rtZu-16" value="5G全连接技术&#xa;(5G Connectivity)" style="whiteSpace=wrap;strokeWidth=2;fontSize=17;rounded=0;" vertex="1" parent="1">
          <mxGeometry x="94" y="621" width="186" height="78" as="geometry" />
        </mxCell>
        <mxCell id="vXbnNPldB_mnkSm1rtZu-17" value="智能体开放平台与治理团队&#xa;(Open Platform &amp; Governance)" style="whiteSpace=wrap;strokeWidth=2;fontSize=17;fontStyle=0;rounded=0;" vertex="1" parent="1">
          <mxGeometry x="69" y="45" width="260" height="102" as="geometry" />
        </mxCell>
        <mxCell id="vXbnNPldB_mnkSm1rtZu-18" value="① 任务调度，宏观管理" style="curved=1;startArrow=none;endArrow=block;exitX=0.36;exitY=1;entryX=0.5;entryY=-0.01;rounded=0;fontSize=14;" edge="1" parent="1" source="vXbnNPldB_mnkSm1rtZu-13" target="vXbnNPldB_mnkSm1rtZu-14">
          <mxGeometry relative="1" as="geometry">
            <Array as="points">
              <mxPoint x="578" y="172" />
            </Array>
          </mxGeometry>
        </mxCell>
        <mxCell id="vXbnNPldB_mnkSm1rtZu-19" value="② 自主决策，协同" style="curved=1;startArrow=none;endArrow=block;exitX=0.49;exitY=0.99;entryX=0.111;entryY=0.045;rounded=0;entryDx=0;entryDy=0;entryPerimeter=0;fontSize=14;" edge="1" parent="1" source="vXbnNPldB_mnkSm1rtZu-14" target="vXbnNPldB_mnkSm1rtZu-15">
          <mxGeometry x="0.0052" relative="1" as="geometry">
            <Array as="points">
              <mxPoint x="573" y="373" />
              <mxPoint x="573" y="445" />
            </Array>
            <mxPoint as="offset" />
          </mxGeometry>
        </mxCell>
        <mxCell id="vXbnNPldB_mnkSm1rtZu-20" value="③ 执行任务，数据采集" style="curved=1;startArrow=none;endArrow=block;exitX=0.54;exitY=0;entryX=1;entryY=0.98;rounded=0;fontSize=14;" edge="1" parent="1" source="vXbnNPldB_mnkSm1rtZu-15" target="vXbnNPldB_mnkSm1rtZu-14">
          <mxGeometry relative="1" as="geometry">
            <Array as="points">
              <mxPoint x="746" y="445" />
              <mxPoint x="746" y="373" />
            </Array>
          </mxGeometry>
        </mxCell>
        <mxCell id="vXbnNPldB_mnkSm1rtZu-21" value="④ 状态上报，环境信息" style="curved=1;startArrow=none;endArrow=block;exitX=0.92;exitY=0;entryX=1;entryY=0.81;rounded=0;fontSize=14;" edge="1" parent="1" source="vXbnNPldB_mnkSm1rtZu-15" target="vXbnNPldB_mnkSm1rtZu-13">
          <mxGeometry x="0.0296" y="14" relative="1" as="geometry">
            <Array as="points">
              <mxPoint x="885" y="445" />
              <mxPoint x="885" y="172" />
            </Array>
            <mxPoint as="offset" />
          </mxGeometry>
        </mxCell>
        <mxCell id="vXbnNPldB_mnkSm1rtZu-22" value="⑤ 协同决策，反馈" style="curved=1;startArrow=none;endArrow=block;exitX=1;exitY=0.05;entryX=0.92;entryY=1;rounded=0;fontSize=14;" edge="1" parent="1" source="vXbnNPldB_mnkSm1rtZu-14" target="vXbnNPldB_mnkSm1rtZu-13">
          <mxGeometry x="-0.0017" relative="1" as="geometry">
            <Array as="points">
              <mxPoint x="761" y="172" />
            </Array>
            <mxPoint as="offset" />
          </mxGeometry>
        </mxCell>
        <mxCell id="vXbnNPldB_mnkSm1rtZu-23" value="" style="curved=1;startArrow=block;endArrow=block;exitX=0.3;exitY=1;rounded=0;" edge="1" parent="1" source="vXbnNPldB_mnkSm1rtZu-13" target="vXbnNPldB_mnkSm1rtZu-16">
          <mxGeometry relative="1" as="geometry">
            <Array as="points">
              <mxPoint x="558" y="172" />
              <mxPoint x="80" y="208" />
              <mxPoint x="80" y="598" />
            </Array>
          </mxGeometry>
        </mxCell>
        <mxCell id="vXbnNPldB_mnkSm1rtZu-24" value="" style="curved=1;startArrow=block;endArrow=block;exitX=0.2;exitY=0.99;entryX=0.63;entryY=0;rounded=0;" edge="1" parent="1" source="vXbnNPldB_mnkSm1rtZu-14" target="vXbnNPldB_mnkSm1rtZu-16">
          <mxGeometry relative="1" as="geometry">
            <Array as="points">
              <mxPoint x="482" y="373" />
              <mxPoint x="189" y="409" />
              <mxPoint x="189" y="598" />
            </Array>
          </mxGeometry>
        </mxCell>
        <mxCell id="vXbnNPldB_mnkSm1rtZu-25" value="" style="curved=1;startArrow=block;endArrow=block;entryX=0.84;entryY=0;rounded=0;" edge="1" parent="1" source="vXbnNPldB_mnkSm1rtZu-15">
          <mxGeometry relative="1" as="geometry">
            <Array as="points">
              <mxPoint x="734.76" y="573" />
              <mxPoint x="257.76" y="598" />
            </Array>
            <mxPoint x="525.76" y="528.5" as="sourcePoint" />
            <mxPoint x="255" y="621" as="targetPoint" />
          </mxGeometry>
        </mxCell>
        <mxCell id="vXbnNPldB_mnkSm1rtZu-26" value="⑥ 赋能创新" style="curved=1;startArrow=none;endArrow=block;exitX=0.36;exitY=1;entryX=0;entryY=0.75;rounded=0;entryDx=0;entryDy=0;fontSize=14;" edge="1" parent="1" source="vXbnNPldB_mnkSm1rtZu-17" target="vXbnNPldB_mnkSm1rtZu-14">
          <mxGeometry relative="1" as="geometry">
            <Array as="points">
              <mxPoint x="145" y="172" />
              <mxPoint x="145" y="245" />
            </Array>
          </mxGeometry>
        </mxCell>
        <mxCell id="vXbnNPldB_mnkSm1rtZu-27" value="⑦ 规范治理" style="curved=1;startArrow=none;endArrow=block;exitX=0.64;exitY=1;entryX=0;entryY=0.24;rounded=0;fontSize=14;" edge="1" parent="1" source="vXbnNPldB_mnkSm1rtZu-17" target="vXbnNPldB_mnkSm1rtZu-14">
          <mxGeometry relative="1" as="geometry">
            <Array as="points">
              <mxPoint x="254" y="172" />
              <mxPoint x="254" y="245" />
            </Array>
          </mxGeometry>
        </mxCell>
      </root>
    </mxGraphModel>
  </diagram>
</mxfile>
